<?xml version="1.0" standalone="no"?><!DOCTYPE svg PUBLIC "-//W3C//DTD SVG 1.1//EN" "http://www.w3.org/Graphics/SVG/1.1/DTD/svg11.dtd"><svg t="1735279535146" class="icon" viewBox="0 0 1024 1024" version="1.1" xmlns="http://www.w3.org/2000/svg" p-id="7257" xmlns:xlink="http://www.w3.org/1999/xlink" width="200" height="200"><path d="M950.913707 383.658667c12.151467-7.236267 12.151467-24.712533 0-31.9488L529.16224 100.7616c-10.513067-6.417067-23.7568-6.417067-34.4064 0L73.140907 351.709867c-12.151467 7.236267-12.288 24.712533 0 31.9488l421.614933 250.948266c10.6496 6.280533 23.893333 6.280533 34.4064 0l421.751467-250.948266z" fill="#AEC9FF" p-id="7258"></path><path d="M511.972693 671.607467c11.8784 0 23.483733-3.140267 33.5872-9.147734l267.332267-159.197866v227.601066c0 11.195733-5.7344 21.572267-15.291733 27.4432l-267.8784 164.932267c-10.376533 6.280533-23.210667 6.280533-33.450667 0l-267.8784-164.932267a31.9488 31.9488 0 0 1-15.291733-27.4432V504.354133l265.4208 158.1056a65.536 65.536 0 0 0 33.450666 9.147734z m413.013334-218.999467c17.749333 0 31.9488 14.472533 31.9488 32.3584v144.042667c0 17.885867-14.199467 32.3584-31.9488 32.3584-17.749333 0-31.9488-14.609067-31.9488-32.3584V484.9664c0-18.0224 14.199467-32.3584 31.9488-32.3584z" fill="#1870FD" p-id="7259"></path></svg>